<svg width="152" height="22" viewBox="0 0 152 22" fill="none" xmlns="http://www.w3.org/2000/svg">
<path d="M10.4117 15.3059L7.01467 15.7029L6.61761 12.3059L10.0147 11.9088L10.4117 15.3059Z" fill="#FF5F14"/>
<path d="M13.7647 18.7471H16.9412L9.70588 0.614746H7.32353L0 18.7471H3.17647L8.47059 5.29122L13.7647 18.7471Z" fill="#FF5F14"/>
<path d="M97.3677 0.658799V3.48233H89.6912V7.84998H96.9265V10.6735H89.6912V15.9676H97.7647V18.7912H86.6912V0.702917H97.3677V0.658799ZM35.3382 19.0559C30 18.9235 26.2941 15.1735 26.2941 9.92351C26.2941 4.36468 30.1765 0.349976 35.5147 0.349976C40.7206 0.349976 44.5147 4.18821 44.5147 9.48233C44.5588 11.3794 44.0735 13.2323 43.103 14.8647C42.5294 15.8353 41.7353 16.6294 40.8088 17.2912L44.9118 18.3941L44.1177 21.3059L35.3382 19.0559ZM44.0735 21.35L35.3382 19.0559L44.0735 21.35ZM29.3382 9.92351C29.3382 13.5853 31.8971 16.3206 35.3382 16.3206C39 16.3206 41.4706 13.5853 41.4706 9.57056C41.4706 6.34998 39.4412 3.08527 35.5147 3.08527C31.2353 3.08527 29.3382 6.52645 29.3382 9.92351ZM69.0441 0.658799V10.9382C69.0441 13.3647 68.2941 16.2323 64.7647 16.2323C61.4559 16.2323 60.75 13.3647 60.75 10.9382V0.658799H57.7941V10.9823C57.7941 18.2617 62.6471 19.0559 64.7206 19.0559C69.3088 19.0559 72.0441 16.0117 72.0441 10.85V0.658799H69.0441ZM114.441 6.12939L123.618 18.747H126.088V0.658799H123.088L123.132 13.1882L114 0.658799H111.529V18.747H114.529L114.441 6.12939ZM136.544 0.658799V3.48233H142.632V18.7912H145.632V3.48233H151.721V0.658799H136.544Z" fill="#FF5F14"/>
</svg>
